<?xml version="1.0" ?><!DOCTYPE svg  PUBLIC '-//W3C//DTD SVG 1.1//EN'  'http://www.w3.org/Graphics/SVG/1.1/DTD/svg11.dtd'><svg enable-background="new 0 0 256 256" id="Layer_1" version="1.1" viewBox="0 0 256 256" xml:space="preserve" xmlns="http://www.w3.org/2000/svg" xmlns:xlink="http://www.w3.org/1999/xlink"><g><circle cx="128" cy="128" fill="#37505F" r="127"/><g><g><g><path d="M82.7,65.9c-3.5-1.9-7.1-3.9-11.1-4.7c-1.5-0.3-2.9-0.5-4.4-0.7c-4.2-0.7-8.3-2.2-12.6-2.6      c-4.3-0.4-9,0.5-11.8,3.7C40.8,63.9,40,67,40,70c0,1.5,0.2,2.9,0.4,4.4c0.2-0.9,0.4-1.7,0.6-2.6c0.8-3.2,1.9-6.7,4.7-8.5      C49,61,53.5,62,57.4,63.4c6.5,2.4,12.8,5.6,18.5,9.6c2.7,1.9,5.3,4,8.4,5.4c1.8,0.8,3.8,1.4,5.6,2.3c0.2,0.1,0.3,0.2,0.5,0.3      c2.2-1.8,4.5-3.5,6.8-5.1C93,71.6,87.8,68.7,82.7,65.9z" fill="#AA692E"/><path d="M62.3,75.5c-2.1-0.1-4.4,0.6-5.7,2.2c-1.2,1.5-1.4,3.7-1.2,5.6c0.1,1.6,0.5,3.2,1,4.7      c0.4,1.3,1,2.6,1.1,3.9c0.1,2.3-1.1,4.4-1.4,6.6c-0.4,2.9,0.8,5.8,2.6,8.1c1.8,2.3,4.1,4.1,6.4,5.8c2.3,1.8,4.6,3.6,6.9,5.3      c0.5-1.3,0.8-2.6,1.2-3.8c1.4-5.9,1.9-12.1,4.3-17.6c1.8-4.1,4.5-7.6,7.7-10.8c-4.5-2.3-9-4.6-13.5-6.9      C68.7,77.1,65.6,75.6,62.3,75.5z" fill="#48331B"/><path d="M51.2,93.3c-1.2,4.4-0.7,9.2,0.8,13.5c1.5,4.3,3.8,8.3,6.2,12.2c0.7,1.1,1.3,2.2,1.8,3.3      c0.8,0.9,1.6,1.8,2.4,2.7c0.9,1,1.8,2.4,1.2,3.7c4.2-2.2,6.8-6.4,8.4-11c-2.3-1.8-4.6-3.6-6.9-5.3c-2.3-1.8-4.6-3.5-6.4-5.8      c-1.8-2.3-2.9-5.2-2.6-8.1c0.3-2.2,1.5-4.4,1.4-6.6c-0.1-1.4-0.6-2.6-1.1-3.9c-0.2-0.7-0.4-1.5-0.6-2.2      C53.5,87.8,51.9,90.5,51.2,93.3z" fill="#C29B65"/><path d="M89.9,80.6c-1.8-0.9-3.8-1.4-5.6-2.3c-3-1.4-5.7-3.5-8.4-5.4c-5.7-4-11.9-7.2-18.5-9.6      C53.5,62,49,61,45.6,63.2c-2.8,1.8-3.9,5.3-4.7,8.5c-0.2,0.9-0.4,1.7-0.6,2.6c0.3,1.5,0.6,3,0.9,4.4c1.7,7.2,3.4,14.4,5.1,21.6      c0.5,2,0.9,4,1.6,5.9c2.4,6.3,7.3,11.2,11.9,16.2c-0.5-1.2-1.2-2.3-1.8-3.3c-2.4-3.9-4.7-7.9-6.2-12.2c-1.5-4.3-2-9.1-0.8-13.5      c0.8-2.9,2.4-5.5,4.6-7.5c-0.2-0.8-0.3-1.7-0.4-2.5c-0.2-2,0-4.1,1.2-5.6c1.3-1.7,3.6-2.3,5.7-2.2c3.3,0.1,6.4,1.7,9.3,3.2      c4.5,2.3,9,4.6,13.5,6.9c1.7-1.7,3.4-3.2,5.3-4.7C90.2,80.8,90,80.7,89.9,80.6z" fill="#EFD19F"/></g><g><path d="M173.3,65.9c3.5-1.9,7.1-3.9,11.1-4.7c1.5-0.3,2.9-0.5,4.4-0.7c4.2-0.7,8.3-2.2,12.6-2.6      c4.3-0.4,9,0.5,11.8,3.7c2,2.2,2.8,5.3,2.8,8.3c0,1.5-0.2,2.9-0.4,4.4c-0.2-0.9-0.4-1.7-0.6-2.6c-0.8-3.2-1.9-6.7-4.7-8.5      c-3.4-2.2-7.9-1.2-11.8,0.1c-6.5,2.4-12.8,5.6-18.5,9.6c-2.7,1.9-5.3,4-8.4,5.4c-1.8,0.8-3.8,1.4-5.6,2.3      c-0.2,0.1-0.3,0.2-0.5,0.3c-2.2-1.8-4.5-3.5-6.8-5.1C163,71.6,168.2,68.7,173.3,65.9z" fill="#AA692E"/><path d="M193.7,75.5c2.1-0.1,4.4,0.6,5.7,2.2c1.2,1.5,1.4,3.7,1.2,5.6c-0.1,1.6-0.5,3.2-1,4.7      c-0.4,1.3-1,2.6-1.1,3.9c-0.1,2.3,1.1,4.4,1.4,6.6c0.4,2.9-0.8,5.8-2.6,8.1c-1.8,2.3-4.1,4.1-6.4,5.8c-2.3,1.8-4.6,3.6-6.9,5.3      c-0.5-1.3-0.8-2.6-1.2-3.8c-1.4-5.9-1.9-12.1-4.3-17.6c-1.8-4.1-4.5-7.6-7.7-10.8c4.5-2.3,9-4.6,13.5-6.9      C187.3,77.1,190.4,75.6,193.7,75.5z" fill="#48331B"/><path d="M204.8,93.3c1.2,4.4,0.7,9.2-0.8,13.5c-1.5,4.3-3.8,8.3-6.2,12.2c-0.7,1.1-1.3,2.2-1.8,3.3      c-0.8,0.9-1.6,1.8-2.4,2.7c-0.9,1-1.8,2.4-1.2,3.7c-4.2-2.2-6.8-6.4-8.4-11c2.3-1.8,4.6-3.6,6.9-5.3c2.3-1.8,4.6-3.5,6.4-5.8      c1.8-2.3,2.9-5.2,2.6-8.1c-0.3-2.2-1.5-4.4-1.4-6.6c0.1-1.4,0.7-2.6,1.1-3.9c0.2-0.7,0.4-1.5,0.6-2.2      C202.5,87.8,204.1,90.5,204.8,93.3z" fill="#C29B65"/><path d="M166.1,80.6c1.8-0.9,3.8-1.4,5.6-2.3c3-1.4,5.7-3.5,8.4-5.4c5.7-4,11.9-7.2,18.5-9.6      c3.8-1.4,8.4-2.4,11.8-0.1c2.8,1.8,3.9,5.3,4.7,8.5c0.2,0.9,0.4,1.7,0.6,2.6c-0.3,1.5-0.6,3-0.9,4.4c-1.7,7.2-3.4,14.4-5.1,21.6      c-0.5,2-0.9,4-1.6,5.9c-2.4,6.3-7.3,11.2-11.9,16.2c0.5-1.2,1.2-2.3,1.8-3.3c2.4-3.9,4.7-7.9,6.2-12.2c1.5-4.3,2-9.1,0.8-13.5      c-0.8-2.9-2.4-5.5-4.6-7.5c0.2-0.8,0.3-1.7,0.4-2.5c0.2-2,0-4.1-1.2-5.6c-1.3-1.7-3.6-2.3-5.7-2.2c-3.3,0.1-6.4,1.7-9.3,3.2      c-4.5,2.3-9,4.6-13.5,6.9c-1.7-1.7-3.4-3.2-5.3-4.7C165.8,80.8,166,80.7,166.1,80.6z" fill="#EFD19F"/></g></g><path d="M193.8,126.9c-2.6-11.2-5.3-22.5-9.7-33.1c-1.4-3.4-3-6.8-5.6-9.6c-3-3.2-7-5.4-11.1-7.3    c-4.5-2.2-9.1-4.2-14-5.3c-6.3-1.4-12.8-1.1-19.3-0.9c-2.1,0.1-4.2,0.2-6.3,0.3c-2.1-0.1-4.2-0.2-6.3-0.3    c-6.4-0.3-13-0.5-19.3,0.9c-4.9,1.1-9.5,3.2-14,5.3c-4,1.9-8.1,4.1-11.1,7.3c-2.5,2.7-4.2,6.2-5.6,9.6c-4.4,10.7-7,21.9-9.7,33.1    c-1.1,4.7-2.2,9.4-2.1,14.1c0,3.7,0.8,7.4,1.5,11.1c0.2,1,0.4,2,0.6,3c1.2,0.6,2.7,0.7,3.8,0c0.7-0.5,1.4-1.2,2.2-1.2    c0.8,0,1.4,0.6,1.8,1.2c3.7,4.9,4.4,11.4,6,17.4c0.2,0.8,0.5,1.7,1.2,2.3c0.4,0.3,0.8,0.4,1.3,0.4c-0.1-3,0.1-6.3-0.4-9.2    c-1-4.9-4.4-9-6.8-13.4c-2-3.8-3.3-8.1-3.8-12.4c-0.4-3.7,0.6-8.4,4.2-9.3c0.6-0.2,1.3-0.2,1.9-0.5c0.8-0.5,1.2-1.4,1.5-2.3    c0.7-2.4,1.6-5.1,3.1-7.1c-0.2-0.8-0.1-1.6,0.1-2.4c0.5-1.4,1.4-2.6,2-4c0.6-1.4,1-2.9,1.9-4c0.8-1,2-1.6,3.1-2.2    c3.2-1.7,6.5-3.3,9.7-5c1.1-0.5,2.2-1.1,3.4-0.8c1.1,0.2,1.9,1.2,2.6,2.1c3,4,5.2,8.7,5.9,13.7c0.6,4.4,0,9.1-2.1,13.1    c1.8,6.4-1,13.6-3.2,20.1c-3.4,10-5.2,20.6-5.5,31.1c1.6,2.4,3.7,4.4,5.9,6.3c0.9-1.3,2-2.5,3.2-3.5c0.2-0.2,0.5-0.3,0.6-0.6    c0.3-0.5,0-1.2-0.2-1.7c-0.7-1.8-1.4-3.6-1.4-5.5c0-1.6,0.4-3.2,1.3-4.4c-1.1-4.7-1.6-9.7-0.4-14.3c1.4-5.1,4.8-9.4,8.2-13.5    c2.1-2.5,4.1-5.1,6.2-7.6c2.4-3,5.8-6.4,9.6-5.4c1.8,0.5,3.2,1.9,4.5,3.3c6.1,6.5,12.3,13.1,16.4,21c1.7,3.3,3.1,7,2.8,10.8    c-0.2,2.1-0.9,4.1-1.9,5.9c0.9,1.2,1.2,2.8,1.2,4.3c0,1.9-0.7,3.8-1.4,5.5c-0.2,0.6-0.5,1.2-0.2,1.7c0.1,0.3,0.4,0.4,0.6,0.6    c1.2,1,2.3,2.1,3.2,3.5c2.3-1.9,4.3-3.9,5.9-6.3c-0.3-10.6-2.1-21.1-5.5-31.1c-2.2-6.5-5-13.8-3.2-20.1c-2-4-2.7-8.7-2.1-13.1    c0.7-5,2.9-9.7,5.9-13.7c0.7-0.9,1.5-1.8,2.6-2.1c1.2-0.3,2.3,0.3,3.4,0.8c3.2,1.7,6.5,3.3,9.7,5c1.1,0.6,2.3,1.2,3.1,2.2    c0.9,1.2,1.3,2.7,1.9,4c0.6,1.4,1.6,2.6,2,4c0.2,0.8,0.3,1.6,0.1,2.4c1.4,2,2.3,4.7,3.1,7.1c0.3,0.9,0.6,1.9,1.5,2.3    c0.6,0.3,1.3,0.3,1.9,0.5c3.6,0.9,4.6,5.6,4.2,9.3c-0.4,4.3-1.7,8.6-3.8,12.4c-2.4,4.4-5.8,8.5-6.8,13.4c-0.6,2.9-0.3,6.1-0.4,9.2    c0.4,0,0.9-0.1,1.3-0.4c0.7-0.5,1-1.4,1.2-2.3c1.6-5.9,2.3-12.4,6-17.4c0.5-0.6,1-1.2,1.8-1.2c0.9,0,1.5,0.8,2.2,1.2    c1.1,0.7,2.6,0.6,3.8,0c0.2-1,0.4-2,0.6-3c0.8-3.7,1.5-7.4,1.5-11.1C196,136.3,194.9,131.6,193.8,126.9z" fill="#97642D"/><path d="M149.7,156.7c-4.1-7.9-10.3-14.5-16.4-21c-1.3-1.4-2.7-2.8-4.5-3.3c-3.8-1-7.1,2.4-9.6,5.4    c-2.1,2.5-4.1,5.1-6.2,7.6c-3.3,4.1-6.8,8.4-8.2,13.5c-1.3,4.7-0.8,9.6,0.4,14.3c0.2-0.3,0.4-0.5,0.7-0.8c1.7-1.5,4-1.7,6.2-1.8    c5.2-0.2,10.5-0.2,15.7,0c5.2-0.2,10.5-0.2,15.7,0c2.2,0.1,4.6,0.3,6.2,1.8c0.3,0.3,0.5,0.5,0.7,0.9c1-1.8,1.7-3.8,1.9-5.9    C152.7,163.7,151.4,160,149.7,156.7z" fill="#D5B084"/><path d="M106.5,118.4c-0.7-5-2.9-9.7-5.9-13.7c-0.7-0.9-1.5-1.8-2.6-2.1c-1.2-0.3-2.3,0.3-3.4,0.8    c-3.2,1.7-6.5,3.3-9.7,5c-1.1,0.6-2.3,1.2-3.1,2.2c-0.9,1.2-1.3,2.7-1.9,4c-0.6,1.4-1.6,2.6-2,4c-0.2,0.8-0.3,1.6-0.1,2.4    c1.1-1.6,2.6-2.8,4.6-3c1.3-0.1,2.6,0.2,3.8,0.5c6.6,1.8,13.9,4.2,17.1,10.2c0.5,0.9,0.8,1.8,1.1,2.7    C106.5,127.5,107.1,122.8,106.5,118.4z" fill="#F1D2A7"/><path d="M177.7,118.6c-0.5-1.4-1.4-2.6-2-4c-0.6-1.4-1-2.9-1.9-4c-0.8-1-2-1.6-3.1-2.2c-3.2-1.7-6.5-3.3-9.7-5    c-1.1-0.5-2.2-1.1-3.4-0.8c-1.1,0.2-1.9,1.2-2.6,2.1c-3,4-5.2,8.7-5.9,13.7c-0.6,4.4,0,9.1,2.1,13.1c0.3-0.9,0.6-1.8,1.1-2.7    c3.2-6,10.5-8.4,17.1-10.2c1.2-0.3,2.5-0.7,3.8-0.5c2,0.2,3.4,1.4,4.6,3C178,120.2,177.9,119.4,177.7,118.6z" fill="#F1D2A7"/><path d="M103.4,128.8c-3.2-6-10.5-8.4-17.1-10.2c-1.2-0.3-2.5-0.7-3.8-0.5c-4.5,0.5-6.3,5.8-7.6,10    c-0.3,0.9-0.6,1.9-1.5,2.3c-0.6,0.3-1.3,0.3-1.9,0.5c-3.6,0.9-4.6,5.6-4.2,9.3c0.4,4.3,1.7,8.6,3.8,12.4c2.4,4.4,5.8,8.5,6.8,13.4    c0.6,2.9,0.3,6.1,0.4,9.2c1.6,0,3.3-2,3.8-3.9c0.6-2.4,1-5.4,3.3-6.1c2.7-0.8,4.8,2.3,5.7,5c1.2,3.7,2,7.5,3.8,10.9    c0.3,0.5,0.6,1.1,1,1.6c0.3-10.6,2.1-21.1,5.5-31.1C103.8,144.1,107.1,135.7,103.4,128.8z" fill="#C5935E"/><path d="M184.7,152.6c2-3.8,3.3-8.1,3.8-12.4c0.4-3.7-0.6-8.4-4.2-9.3c-0.6-0.2-1.3-0.2-1.9-0.5    c-0.8-0.5-1.2-1.4-1.5-2.3c-1.3-4.3-3.2-9.6-7.6-10c-1.3-0.1-2.6,0.2-3.8,0.5c-6.6,1.8-13.9,4.2-17.1,10.2    c-3.7,6.9-0.4,15.3,2.1,22.8c3.4,10,5.2,20.6,5.5,31.1c0.3-0.5,0.7-1,1-1.6c1.9-3.4,2.6-7.3,3.8-10.9c0.9-2.7,3-5.8,5.7-5    c2.3,0.7,2.8,3.7,3.3,6.1c0.5,1.9,2.1,3.9,3.8,3.9c0.1-3-0.1-6.3,0.4-9.2C178.9,161.1,182.3,157.1,184.7,152.6z" fill="#C5935E"/><path d="M150.7,185.5c-0.2-0.2-0.5-0.3-0.6-0.6c-0.3-0.5,0-1.2,0.2-1.7c0.7-1.8,1.4-3.6,1.4-5.5    c0-1.9-0.6-3.9-2-5.2c-1.7-1.5-4-1.7-6.2-1.8c-5.2-0.2-10.5-0.2-15.7,0c-5.2-0.2-10.5-0.2-15.7,0c-2.2,0.1-4.6,0.3-6.2,1.8    c-1.4,1.3-2,3.3-2,5.2c0,1.9,0.7,3.8,1.4,5.5c0.2,0.6,0.5,1.2,0.2,1.7c-0.1,0.3-0.4,0.4-0.6,0.6c-3.6,2.8-5.8,7.3-6,12    c-0.1,2,0.3,4,1,5.9c3.9,2.4,6.8,6.1,10.4,8.9c4.8,3.7,11,5.7,17.1,5.7c0.1,0,0.2,0,0.3,0c0.1,0,0.2,0,0.3,0    c6.1,0,12.3-2,17.1-5.7c3.6-2.8,6.6-6.5,10.4-8.9c0.7-1.9,1-3.9,1-5.9C156.6,192.8,154.3,188.3,150.7,185.5z" fill="#F7FCFE"/><path d="M138.5,199.7c-3-0.8-6.4-2.1-7.6-5c-0.4-0.9-0.5-1.8-0.7-2.8c-0.2-1-0.3-2.1,0-3.1c0.2-0.6,0.6-1.2,1-1.7    c3-4.1,6.4-7.8,10.1-11.3c1.4-1.3,3-2.7,3.6-4.5c0.3-0.8,0.4-1.7,0.4-2.5c0.1-1.3,0.2-2.8-0.4-4c-0.4-0.8-1.2-1.4-2-2    c-2.4-1.5-5.2-2.2-8.1-2.4c-2.4-0.1-4.7,0.1-7.1,0.3c-2.4-0.3-4.7-0.5-7.1-0.3c-2.8,0.2-5.7,0.8-8.1,2.4c-0.8,0.5-1.5,1.1-2,2    c-0.6,1.2-0.6,2.6-0.4,4c0.1,0.8,0.2,1.7,0.4,2.5c0.6,1.8,2.2,3.2,3.6,4.5c3.7,3.5,7.1,7.2,10.1,11.3c0.4,0.5,0.8,1.1,1,1.7    c0.3,1,0.2,2,0,3.1c-0.1,0.9-0.3,1.9-0.7,2.8c-1.3,2.9-4.6,4.2-7.6,5c-3.1,0.8-6.2,1.4-9.4,1.8c1.6,0.5,3.3,0.6,5,0.6    c5.1,0.1,10.2-0.5,15.1-1.6c4.9,1.1,10,1.7,15.1,1.6c1.7,0,3.4-0.1,5-0.6C144.7,201.1,141.6,200.5,138.5,199.7z" fill="#030204"/><path d="M94.8,181.2c-1.9-3.4-2.6-7.3-3.8-10.9c-0.9-2.7-3-5.8-5.7-5c-2.3,0.7-2.8,3.7-3.3,6.1    c-0.6,2.4-3.1,5-5,3.5c-0.7-0.5-1-1.4-1.2-2.3c-1.6-5.9-2.3-12.4-6-17.4c-0.5-0.6-1-1.2-1.8-1.2c-0.9,0-1.5,0.8-2.2,1.2    c-1.1,0.7-2.6,0.6-3.8,0c1,4.8,1.9,9.5,2.9,14.3c1,5,2.1,10.2,4.7,14.7c2.2,3.8,5.3,7,8.8,9.8c2.3,1.8,4.7,3.5,7.5,4.6    c4,1.6,8.6,1.9,12.5,3.8c0.6,0.3,1.2,0.6,1.7,1c-0.7-1.9-1-3.9-1-5.9c0.1-3,1.1-6,2.8-8.5C99,186.7,96.5,184.3,94.8,181.2z" fill="#E9CC9B"/><path d="M190,155.2c-0.7-0.5-1.4-1.2-2.2-1.2c-0.8,0-1.4,0.6-1.8,1.2c-3.7,4.9-4.4,11.4-6,17.4    c-0.2,0.8-0.5,1.7-1.2,2.3c-1.9,1.5-4.4-1.1-5-3.5c-0.6-2.4-1-5.4-3.3-6.1c-2.7-0.8-4.8,2.3-5.7,5c-1.2,3.7-2,7.5-3.8,10.9    c-1.7,3.1-4.2,5.6-6.9,7.8c1.7,2.5,2.7,5.5,2.8,8.5c0.1,2-0.3,4-1,5.9c0.6-0.4,1.1-0.7,1.7-1c3.9-1.9,8.4-2.2,12.5-3.8    c2.8-1.1,5.2-2.8,7.5-4.6c3.5-2.8,6.6-6,8.8-9.8c2.6-4.5,3.6-9.6,4.7-14.7c1-4.8,1.9-9.5,2.9-14.3    C192.5,155.8,191.1,155.9,190,155.2z" fill="#E9CC9B"/><g><g><path d="M85,121.6c0.1,2.6,1.4,5.1,3.4,6.9c1.9,1.8,4.4,2.9,7,3.5c2.5,0.6,5.5,0.8,6.9,2.9      c1.5,2.1,0.7,5.1-0.2,7.6c-1.1,3-2.1,6-3.2,9.1c-1.5,4.3-3,8.6-3.8,13c-0.7,4.5-0.7,9.2,1,13.4c0-2.1,0.3-4.2,0.9-6.2      c0.7-2.8,1.9-5.4,3.2-8c2.8-5.8,6-11.5,8.1-17.6c2.1-6.1,3-12.8,1.2-19c-0.7-2.2-1.7-4.4-3.6-5.9c-1.9-1.5-4.5-2-6.9-2.3      C94.1,118.5,88.8,118.6,85,121.6z" fill="#F7FCFE"/><path d="M108.1,133.1c-0.7,1.1-2,2.1-3.4,1.9c-1.2-0.2-1.9-1.3-2.4-2.3c-0.5-1-1-2.1-2.2-2.5c-0.9-0.3-2,0-3,0.1      c-3.7,0.4-7.1-1.5-9.7-3.8c-1-0.9-2-1.9-3.2-2.5c-1.2-0.7-2.8-1-4.2-0.4c1.3-0.8,2.4-1.9,3.1-3.1c0.4-0.6,0.7-1.3,1.3-1.9      c0.8-0.9,1.9-1.4,3-1.9c1-0.5,2.1-0.9,3.2-1.2c3.2-0.9,6.7-0.4,9.6,0.9c2.9,1.3,5.2,3.5,6.9,5.9c1.1,1.6,1.9,3.4,2.2,5.3      C109.5,129.5,109.2,131.5,108.1,133.1z" fill="#FFFEFE"/><path d="M84.4,120.3c1.1-2.2,3.1-4,5.3-4.9c2.8-1.1,5.9-1.1,8.8-0.3c0.9,0.3,1.9,0.6,2.7,1.1      c2.3,1.4,3.8,3.8,4.9,6.3c1.1,2.5,2,5.4,0.9,7.9c-0.3,0.6-1,1.3-1.6,1c-0.4-0.2-0.5-0.7-0.7-1.2c-0.6-2-2.6-3.6-4.7-3.6      c-0.8,0-1.6,0.1-2.4,0.2c-3.7,0.3-7.3-1.7-10-4.3C86.7,121.6,85.7,120.5,84.4,120.3z" fill="#0D0C0F"/><path d="M101.2,116.2c-0.8-0.5-1.8-0.8-2.7-1.1c-2.9-0.8-6-0.9-8.8,0.3c-1,0.4-2,1-2.8,1.8c-0.1,0.6,0,1.3,0.1,2      c0.7,4.5,5,7.5,9.5,6.8c4-0.6,6.8-3.9,7.1-7.7C102.9,117.4,102.1,116.8,101.2,116.2z" fill="#693616"/><ellipse cx="95.4" cy="119.4" fill="#010101" rx="2.5" ry="2.5" transform="matrix(0.9876 -0.1567 0.1567 0.9876 -17.5371 16.43)"/><circle cx="98.1" cy="120.5" fill="#FFFFFF" r="0.8"/><ellipse cx="93" cy="118.9" fill="#FFFFFF" opacity="0.48" rx="1.4" ry="1.3" transform="matrix(0.9876 -0.1567 0.1567 0.9876 -17.4801 16.0343)"/><path d="M82.8,116.2c0,0,0.4-0.1,1.1-0.4c0.7-0.2,1.8-0.6,3.1-0.9c1.4-0.3,3-0.7,5-0.9c1-0.1,2.1-0.1,3.2-0.1      c1.1,0.1,2.3,0.2,3.6,0.6c0.3,0.1,0.6,0.2,0.9,0.3c0.3,0.1,0.6,0.2,0.9,0.3c0.3,0.1,0.6,0.3,0.9,0.4c0.3,0.2,0.5,0.3,0.9,0.5      c1.2,0.7,2.3,1.6,3.3,2.7c2,2.1,3.3,5,4.1,7.9c0.7,3,0.9,6.1,0.9,9.3c-0.1,3.2-0.5,6.4-1.3,9.5c-0.4,1.6-1,3.1-1.7,4.6      c-0.7,1.5-1.4,2.9-2.2,4.3c-0.7,1.4-1.5,2.8-2.1,4.1l-0.5,1l-0.1,0.3c0,0,0-0.1,0,0l0,0l0,0.1l-0.1,0.1l-0.2,0.5      c-0.3,0.7-0.6,1.4-0.8,2c-0.9,2.6-1.6,5.3-2,7.9c-0.4,2.6-0.6,5-0.6,7.3c0,2.3,0.1,4.4,0.3,6.2c0.1,0.9,0.2,1.8,0.3,2.6      c0.1,0.8,0.2,1.6,0.3,2.2c0.3,1.3,0.4,2.4,0.6,3.2c0.1,0.7,0.2,1.2,0.2,1.2l-0.3,0.2c0,0-0.3-0.3-0.7-0.9      c-0.2-0.3-0.5-0.7-0.8-1.2c-0.3-0.5-0.6-1-1-1.7c-0.3-0.7-0.7-1.4-1-2.2c-0.3-0.8-0.7-1.7-0.9-2.7c-0.6-2-1-4.2-1.1-6.8      c-0.1-2.5,0.1-5.3,0.6-8.1c0.6-2.9,1.5-5.7,2.9-8.6c0.3-0.7,0.7-1.4,1.1-2l0.3-0.5l0.2-0.3l0.2-0.3l0.7-1      c0.9-1.3,1.8-2.6,2.7-3.8c1.9-2.5,3.6-5.1,4.7-8c1.1-2.9,1.7-6.1,1.8-9.2c0.1-3.1-0.4-6.2-1.4-8.9c-1-2.7-2.6-5.1-4.4-6.9      c-0.9-0.9-1.9-1.6-2.9-2.2c-0.2-0.1-0.5-0.3-0.8-0.4c-0.3-0.1-0.5-0.2-0.8-0.4c-0.3-0.1-0.5-0.2-0.8-0.3      c-0.3-0.1-0.5-0.2-0.8-0.3c-2.1-0.6-4.2-0.8-6.1-0.8c-1.9,0-3.5,0.2-4.9,0.3c-2.8,0.3-4.3,0.5-4.3,0.5L82.8,116.2z" fill="#040303"/></g><g><path d="M170.7,121.6c-0.1,2.6-1.4,5.1-3.4,6.9c-1.9,1.8-4.4,2.9-7,3.5c-2.5,0.6-5.5,0.8-6.9,2.9      c-1.5,2.1-0.7,5.1,0.2,7.6c1.1,3,2.1,6,3.2,9.1c1.5,4.3,3,8.6,3.8,13c0.7,4.5,0.7,9.2-1,13.4c0-2.1-0.3-4.2-0.9-6.2      c-0.7-2.8-1.9-5.4-3.2-8c-2.8-5.8-6-11.5-8.1-17.6c-2.1-6.1-3-12.8-1.2-19c0.7-2.2,1.7-4.4,3.6-5.9c1.9-1.5,4.5-2,6.9-2.3      C161.6,118.5,166.8,118.6,170.7,121.6z" fill="#F7FCFE"/><path d="M147.5,133.1c0.7,1.1,2,2.1,3.4,1.9c1.2-0.2,1.9-1.3,2.4-2.3c0.5-1,1-2.1,2.2-2.5c0.9-0.3,2,0,3,0.1      c3.7,0.4,7.1-1.5,9.7-3.8c1-0.9,2-1.9,3.2-2.5c1.2-0.7,2.8-1,4.2-0.4c-1.3-0.8-2.4-1.9-3.1-3.1c-0.4-0.6-0.7-1.3-1.3-1.9      c-0.8-0.9-1.9-1.4-3-1.9c-1-0.5-2.1-0.9-3.2-1.2c-3.2-0.9-6.7-0.4-9.6,0.9c-2.9,1.3-5.2,3.5-6.9,5.9c-1.1,1.6-1.9,3.4-2.2,5.3      C146.1,129.5,146.4,131.5,147.5,133.1z" fill="#FFFEFE"/><path d="M171.3,120.3c-1.1-2.2-3.1-4-5.3-4.9c-2.8-1.1-5.9-1.1-8.8-0.3c-0.9,0.3-1.9,0.6-2.7,1.1      c-2.3,1.4-3.8,3.8-4.9,6.3c-1.1,2.5-2,5.4-0.9,7.9c0.3,0.6,1,1.3,1.6,1c0.4-0.2,0.5-0.7,0.7-1.2c0.6-2,2.6-3.6,4.7-3.6      c0.8,0,1.6,0.1,2.4,0.2c3.7,0.3,7.3-1.7,10-4.3C169,121.6,169.9,120.5,171.3,120.3z" fill="#0D0C0F"/><path d="M154.4,116.2c0.8-0.5,1.8-0.8,2.7-1.1c2.9-0.8,6-0.9,8.8,0.3c1,0.4,2,1,2.8,1.8c0.1,0.6,0,1.3-0.1,2      c-0.7,4.5-5,7.5-9.5,6.8c-4-0.6-6.8-3.9-7.1-7.7C152.8,117.4,153.5,116.8,154.4,116.2z" fill="#693616"/><ellipse cx="160.2" cy="119.4" fill="#010101" rx="2.5" ry="2.5" transform="matrix(-0.9876 -0.1567 0.1567 -0.9876 299.676 262.5219)"/><circle cx="157.5" cy="120.5" fill="#FFFFFF" r="0.8"/><ellipse cx="162.7" cy="118.9" fill="#FFFFFF" opacity="0.48" rx="1.4" ry="1.3" transform="matrix(-0.9876 -0.1567 0.1567 -0.9876 304.707 261.7899)"/><path d="M172.9,116.2c0,0-0.4-0.1-1.1-0.4c-0.7-0.2-1.8-0.6-3.1-0.9c-1.4-0.3-3-0.7-5-0.9      c-1-0.1-2.1-0.1-3.2-0.1c-1.1,0.1-2.3,0.2-3.6,0.6c-0.3,0.1-0.6,0.2-0.9,0.3c-0.3,0.1-0.6,0.2-0.9,0.3c-0.3,0.1-0.6,0.3-0.9,0.4      c-0.3,0.2-0.5,0.3-0.9,0.5c-1.2,0.7-2.3,1.6-3.3,2.7c-2,2.1-3.3,5-4.1,7.9c-0.7,3-0.9,6.1-0.9,9.3c0.1,3.2,0.5,6.4,1.3,9.5      c0.4,1.6,1,3.1,1.7,4.6c0.7,1.5,1.4,2.9,2.2,4.3c0.7,1.4,1.5,2.8,2.1,4.1l0.5,1l0.1,0.3c0,0,0-0.1,0,0l0,0l0,0.1l0.1,0.1      l0.2,0.5c0.3,0.7,0.6,1.4,0.8,2c0.9,2.6,1.6,5.3,2,7.9c0.4,2.6,0.6,5,0.6,7.3c0,2.3-0.1,4.4-0.3,6.2c-0.1,0.9-0.2,1.8-0.3,2.6      c-0.1,0.8-0.2,1.6-0.3,2.2c-0.3,1.3-0.4,2.4-0.6,3.2c-0.1,0.7-0.2,1.2-0.2,1.2l0.3,0.2c0,0,0.3-0.3,0.7-0.9      c0.2-0.3,0.5-0.7,0.8-1.2c0.3-0.5,0.6-1,1-1.7c0.3-0.7,0.7-1.4,1-2.2c0.3-0.8,0.7-1.7,0.9-2.7c0.6-2,1-4.2,1.1-6.8      c0.1-2.5-0.1-5.3-0.6-8.1c-0.6-2.9-1.5-5.7-2.9-8.6c-0.3-0.7-0.7-1.4-1.1-2l-0.3-0.5l-0.2-0.3l-0.2-0.3l-0.7-1      c-0.9-1.3-1.8-2.6-2.7-3.8c-1.9-2.5-3.6-5.1-4.7-8c-1.1-2.9-1.7-6.1-1.8-9.2c-0.1-3.1,0.4-6.2,1.4-8.9c1-2.7,2.6-5.1,4.4-6.9      c0.9-0.9,1.9-1.6,2.9-2.2c0.2-0.1,0.5-0.3,0.8-0.4c0.3-0.1,0.5-0.2,0.8-0.4c0.3-0.1,0.5-0.2,0.8-0.3c0.3-0.1,0.5-0.2,0.8-0.3      c2.1-0.6,4.2-0.8,6.1-0.8c1.9,0,3.5,0.2,4.9,0.3c2.8,0.3,4.3,0.5,4.3,0.5L172.9,116.2z" fill="#040303"/></g></g><path d="M82.3,117.2c0.1-0.3,0.3-0.6,0.5-0.7c0.3-0.2,0.6-0.3,0.9-0.3c2.7-0.6,5.4-1.2,8.1-1.5    c1.3-0.1,2.7-0.1,3.8,0.7c-1.5-0.1-3.1-0.2-4.6,0c-1.5,0.2-3.1,0.8-4.2,1.8c-1.2,1.1-1.9,2.6-3,3.7c-1.1,1.1-2.4,1.9-3.8,2.7    C81.4,121.8,81.3,119.3,82.3,117.2z" fill="#040303"/><path d="M173.3,117.2c-0.1-0.3-0.3-0.6-0.5-0.7c-0.3-0.2-0.6-0.3-0.9-0.3c-2.7-0.6-5.4-1.2-8.1-1.5    c-1.3-0.1-2.7-0.1-3.8,0.7c1.5-0.1,3.1-0.2,4.6,0s3.1,0.8,4.2,1.8c1.2,1.1,1.9,2.6,3,3.7c1.1,1.1,2.4,1.9,3.8,2.7    C174.2,121.8,174.2,119.3,173.3,117.2z" fill="#040303"/><path d="M77.9,132.4c-0.1,1.4-0.4,2.7-1.1,3.9c-0.4,0.8-1.3,1.6-2.1,1.1c0.1-0.7,0.1-1.5-0.2-2.2    c-0.2-0.6-0.7-1.2-0.6-1.9c0.1-0.7,0.8-1.3,1.6-1.4c0.7-0.1,1.5,0.1,2.2,0.3" fill="#361410"/><path d="M73.7,141.1c-0.3,1.7-1.2,3.4-2.6,4.5c-0.3-1.2-0.4-2.4-0.5-3.6c-0.1-0.6-0.1-1.3,0.2-1.8    c0.4-0.7,1.3-1,2-0.7c0.7,0.3,1.2,1.1,1,1.9" fill="#361410"/><path d="M70.5,149.5c1,0.9,1,2.5,0.9,3.8c0,0.3,0,0.7-0.3,0.9c-0.4,0.4-1.2,0-1.6-0.4c-0.5-0.6-0.8-1.5-0.4-2.1    c0.4-0.5,1.3-0.8,1.1-1.5" fill="#361410"/><path d="M75.2,151.6c0.2-0.8,0.8-1.4,1.5-1.7c0.2-0.1,0.4-0.1,0.5,0c0.1,0.1,0.2,0.3,0.2,0.4    c0.1,0.6,0.2,1.2,0,1.8c-0.2,0.6-0.8,1.1-1.4,1c-0.9-0.2-1.1-1.4-1-2.3" fill="#361410"/><path d="M79.3,147c-0.2-0.7,0.8-1.5,1.4-1c0.2,0.7,0.4,1.4,0.6,2c0.1,0.2,0.1,0.5,0,0.7c-0.1,0.1-0.2,0.1-0.4,0.2    c-0.6,0.1-1.2,0.1-1.6-0.3C78.9,148.2,78.8,147.5,79.3,147" fill="#361410"/><path d="M80.3,153.7c1.5-0.7,3.4,0.5,3.5,2.1c0,0.1,0,0.3-0.1,0.4c-0.1,0.1-0.2,0.1-0.4,0.1    c-0.8,0.1-1.7,0.2-2.5-0.1c-0.8-0.3-1.4-1.1-1.2-1.9" fill="#361410"/><path d="M72.2,157.2c0.4-0.1,0.9-0.2,1.3-0.3c0.6-0.1,1.2-0.3,1.8-0.1c0.6,0.2,1.1,0.7,1,1.3    c-0.1,0.5-0.5,0.8-0.9,1c-0.5,0.1-0.9,0.1-1.4,0.1c-0.4,0-0.8-0.1-1.1-0.3c-0.3-0.2-0.5-0.7-0.3-1" fill="#361410"/><path d="M81.3,165.9c0.4-0.6,1.4-0.7,2-0.1c0.2,0.2,0.3,0.5,0.4,0.8c0.5,1.2,0.7,2.5,0.7,3.7    c-1.2,0.4-2.6-0.1-3.2-1.2c-0.7-1-0.7-2.4-0.2-3.5" fill="#361410"/><path d="M76,176.7c0.9-0.2,2-0.3,2.5,0.4c0.2,0.3,0.2,0.7,0.3,1.1c0,0.7,0.1,1.4,0,2.1c0,0.5-0.2,1.2-0.7,1.1    c-0.2-0.1-0.3-0.2-0.4-0.4c-0.7-1.2-0.8-2.7-0.3-3.9" fill="#361410"/><path d="M69.7,177.2c0-0.4-0.1-0.7-0.1-1.1c-0.1-0.7,0-1.6,0.7-1.6c0.4,0,0.7,0.3,1,0.6c0.8,1,1.2,2.1,1.4,3.3    c0.1,0.6,0,1.3-0.4,1.7c-0.7,0.6-1.8,0-2.2-0.9c-0.3-0.8-0.2-1.8-0.2-2.7" fill="#361410"/><path d="M72.4,182.1c1.1-0.3,2.3,0.1,3,1c0.2,0.3,0.4,0.5,0.4,0.9c0.1,1.1-1.4,1.9-2.3,1.4c-1-0.5-1.3-1.8-1.1-2.9    " fill="#361410"/><path d="M67.3,168.5c1.1-0.3,2.2-1.1,2.9-2c0.3-0.3,0.7-0.7,1-0.5c0.1,0.1,0.1,0.1,0.2,0.2    c0.4,0.8,0.5,1.8,0.2,2.7c-0.7,0.1-1.3,0.2-2,0.2c-0.3,0-0.6,0.1-0.9-0.1c-0.3-0.2-0.4-0.6-0.2-0.8" fill="#361410"/><path d="M75.2,167.9c0.3-0.6,0-1.6,0.6-2c0.5-0.3,1.2,0.1,1.5,0.7c0.5,0.9,0.5,2.1,0.4,3.1c-0.7,0.3-1.6,0-2.1-0.6    c-0.5-0.6-0.6-1.5-0.2-2.1" fill="#361410"/><path d="M64.6,157c0.1-1.1,0.4-2.4,1.4-2.9c0.7-0.3,1.6-0.1,2.1,0.5c0.5,0.5,0.7,1.3,0.7,2.1    c0,0.3-0.1,0.5-0.2,0.7c-0.3,0.5-0.9,0.8-1.4,0.9c-0.6,0.1-1.2,0.1-1.7-0.2c-0.5-0.3-0.7-1.1-0.3-1.6" fill="#361410"/><path d="M63.1,149.7c0.1-0.9,0.3-1.8,0.4-2.8c0-0.1,0-0.3,0.1-0.4c0.1-0.1,0.3-0.2,0.4-0.2    c0.5-0.2,1.1-0.3,1.6-0.2c0.5,0.1,1,0.5,1.1,1c0,0.4-0.3,0.8-0.5,1.1c-0.3,0.3-0.6,0.7-1,1c-0.3,0.3-0.7,0.5-1.1,0.5    c-0.4,0-0.7-0.6-0.4-0.9" fill="#361410"/><path d="M62.5,138.1c0.3-0.7,0.7-1.4,1.3-1.8c0.6-0.4,1.6-0.4,2,0.3c0.1,0.2,0.2,0.5,0.2,0.8    c0,1.3-0.7,2.6-1.7,3.3c-0.1,0.1-0.2,0.1-0.3,0.1c-0.2,0-0.4-0.1-0.5-0.3c-0.4-0.5-0.6-1.2-0.5-1.9" fill="#361410"/><path d="M60.7,132.8c0.3-0.4,0.5-0.9,0.6-1.4c0.2-0.5,0.5-1,1-1c0.7-0.1,1.2,0.6,1.6,1.2c0.3,0.5,0.6,1.1,0.6,1.6    c0,0.7-0.5,1.3-1.2,1.5c-0.7,0.2-1.4-0.2-1.7-0.8" fill="#361410"/><path d="M66,122.5c0.2-1.1,0.9-2.2,1.9-2.8c0.2-0.1,0.4-0.2,0.7-0.2c0.4,0,0.7,0.3,0.9,0.6c0.6,0.7,1.2,1.4,1.8,2    c0.1,0.1,0.2,0.2,0.2,0.4c0.1,0.4-0.5,0.6-1,0.7c-0.7,0-1.4,0.1-2.2,0.1c-0.4,0-0.9,0-1.3-0.2c-0.4-0.3-0.4-0.9,0-1.1" fill="#361410"/><path d="M66.6,126.7c0.6-0.1,1.3-0.2,1.8,0.2c0.7,0.6,0.3,1.9-0.6,2.4c-0.8,0.5-1.9,0.4-2.6-0.2    c-0.7-0.6-0.9-1.8-0.4-2.5c0.3-0.2,0.7-0.2,1,0" fill="#361410"/><path d="M105.5,100.8c0.2,1.3,0.3,2.7,0.1,4c0,0.2-0.1,0.5-0.2,0.6c-0.2,0.4-0.7,0.5-1.1,0.8    c-0.4,0.3-0.6,0.8-1.1,0.9c-0.6,0.1-1-0.6-1.2-1.2c-0.5-1.6-0.8-3.3-0.9-5c0-0.4,0-0.8,0.2-1c0.4-0.4,1-0.1,1.5-0.2    c0.3-0.1,0.6-0.4,1-0.5C104.8,99,105.4,100,105.5,100.8z" fill="#361410"/><path d="M116.5,93.9c0.1,0.5,0.1,1.1,0.1,1.6c-0.1,0.4-0.2,0.7-0.5,1c-0.3,0.3-0.8,0.5-1.2,0.6    c-1.6,0.5-2.6,0.3-2.1-1.6C113.1,94.5,116.4,92.7,116.5,93.9z" fill="#361410"/><path d="M104.7,88.8c0-0.6,0.4-1.1,1-1.3c0.5-0.2,1.1-0.2,1.7-0.2c0.9,0,1.9,0,2.7,0.6c0.7,0.5,1,1.8,0.2,2.4    c-0.4,0.2-0.8,0.3-1.3,0.2c-0.8,0-1.7-0.1-2.5-0.3c-0.5-0.1-1.1-0.3-1.5-0.6c-0.4-0.3-0.7-0.9-0.5-1.4c0.2,0,0.4,0,0.6,0" fill="#361410"/><path d="M116.2,87.2c0.8-0.7,0.6-2.4,1.7-2.8c0.5-0.2,1.1,0.1,1.6,0.3c0.8,0.4,1.7,0.8,2.3,1.5    c0.6,0.7,0.9,1.7,0.5,2.6c-0.5,1-1.7,1.3-2.8,1.6c-0.2,0-0.5,0.1-0.7,0c-0.3-0.1-0.5-0.3-0.6-0.6c-0.4-0.7-0.6-1.5-0.5-2.3" fill="#361410"/><path d="M108.9,78.1c0.4-0.2,0.2-0.9,0.6-1.2c0.1-0.1,0.3-0.1,0.5-0.1c0.7,0,1.5,0,2.2,0c0.3,0,0.6,0,0.8,0.2    c0.2,0.2,0.3,0.5,0.4,0.8c0.2,0.8,0.3,1.9-0.4,2.4c-0.4,0.3-0.9,0.4-1.4,0.4c-0.8,0-1.5-0.2-2.2-0.4c-0.6-0.2-1.1-0.6-1.3-1.2    c-0.2-0.6,0.3-1.4,0.9-1.2" fill="#361410"/><path d="M117,78.4c0.4-0.4,0.7-0.9,1.2-1.2c0.5-0.3,1.2-0.3,1.6,0c0.4,0.3,0.6,0.9,0.5,1.5    c-0.1,0.5-0.6,0.9-1.1,1.2c-0.8,0.4-1.9,0.3-2.6-0.3c0.3-0.2,0.6-0.4,0.9-0.6" fill="#361410"/><path d="M101.8,82.3c-0.7,0-1.5,0-2.1,0.3c-0.7,0.3-1.3,0.8-1.3,1.6c0,0.1,0,0.3,0.1,0.4c0.1,0.1,0.2,0.1,0.4,0.2    c0.5,0.1,1.1,0.2,1.6,0.1c0.5-0.1,1.1-0.4,1.2-0.9" fill="#361410"/><path d="M78.9,95.4c-0.3,0.8-1.3,1.2-2,1.6c-0.8,0.5-1.4,1.5-0.9,2.2c0.5,0.2,1,0.3,1.5,0.2c0.5-0.1,1-0.5,1-1    c0-0.2-0.1-0.4,0-0.7c0.1-0.3,0.4-0.5,0.6-0.8c0.3-0.5-0.2-1.4-0.8-1.3" fill="#361410"/><path d="M71.9,113.7c-0.8,1.1-1.2,2.6-1,3.9c0,0.1,0,0.3,0.1,0.4c0.1,0.1,0.3,0.2,0.5,0.2c0.6,0.1,1.2,0.1,1.8,0.1    c0.2,0,0.3,0,0.5-0.1c0.1-0.1,0.1-0.2,0.1-0.4c0.1-1,0.1-2-0.2-3c-0.3-0.8-0.8-1.6-1.7-1.7" fill="#361410"/><path d="M75.2,127.4c-0.1-1.3,0.7-2.6,1.5-3.7c0.2-0.3,0.4-0.5,0.7-0.6c0.7-0.3,1.3,0.4,1.5,1.1    c0.3,1.1-0.3,2.3-1.1,3.2c-0.5,0.5-1.1,1-1.8,1c-0.7,0-1.5-0.4-1.6-1.1" fill="#361410"/><path d="M177.8,132.4c0.1,1.4,0.4,2.7,1.1,3.9c0.4,0.8,1.3,1.6,2.1,1.1c-0.1-0.7-0.1-1.5,0.2-2.2    c0.2-0.6,0.7-1.2,0.6-1.9c-0.1-0.7-0.8-1.3-1.6-1.4c-0.7-0.1-1.5,0.1-2.2,0.3" fill="#361410"/><path d="M182,141.1c0.3,1.7,1.2,3.4,2.6,4.5c0.3-1.2,0.4-2.4,0.5-3.6c0.1-0.6,0.1-1.3-0.2-1.8    c-0.4-0.7-1.3-1-2-0.7c-0.7,0.3-1.2,1.1-1,1.9" fill="#361410"/><path d="M185.1,149.5c-1,0.9-1,2.5-0.9,3.8c0,0.3,0,0.7,0.3,0.9c0.4,0.4,1.2,0,1.6-0.4c0.5-0.6,0.8-1.5,0.4-2.1    c-0.4-0.5-1.3-0.8-1.1-1.5" fill="#361410"/><path d="M180.4,151.6c-0.2-0.8-0.8-1.4-1.5-1.7c-0.2-0.1-0.4-0.1-0.5,0c-0.1,0.1-0.2,0.3-0.2,0.4    c-0.1,0.6-0.2,1.2,0,1.8s0.8,1.1,1.4,1c0.9-0.2,1.1-1.4,1-2.3" fill="#361410"/><path d="M176.3,147c0.2-0.7-0.8-1.5-1.4-1c-0.2,0.7-0.4,1.4-0.6,2c-0.1,0.2-0.1,0.5,0,0.7c0.1,0.1,0.2,0.1,0.4,0.2    c0.6,0.1,1.2,0.1,1.6-0.3C176.8,148.2,176.8,147.5,176.3,147" fill="#361410"/><path d="M175.3,153.7c-1.5-0.7-3.4,0.5-3.5,2.1c0,0.1,0,0.3,0.1,0.4c0.1,0.1,0.2,0.1,0.4,0.1    c0.8,0.1,1.7,0.2,2.5-0.1c0.8-0.3,1.4-1.1,1.2-1.9" fill="#361410"/><path d="M183.4,157.2c-0.4-0.1-0.9-0.2-1.3-0.3c-0.6-0.1-1.2-0.3-1.8-0.1c-0.6,0.2-1.1,0.7-1,1.3    c0.1,0.5,0.5,0.8,0.9,1c0.5,0.1,0.9,0.1,1.4,0.1c0.4,0,0.8-0.1,1.1-0.3c0.3-0.2,0.5-0.7,0.3-1" fill="#361410"/><path d="M174.3,165.9c-0.4-0.6-1.4-0.7-2-0.1c-0.2,0.2-0.3,0.5-0.4,0.8c-0.5,1.2-0.7,2.5-0.7,3.7    c1.2,0.4,2.6-0.1,3.2-1.2c0.7-1,0.7-2.4,0.2-3.5" fill="#361410"/><path d="M179.6,176.7c-0.9-0.2-2-0.3-2.5,0.4c-0.2,0.3-0.2,0.7-0.3,1.1c0,0.7-0.1,1.4,0,2.1c0,0.5,0.2,1.2,0.7,1.1    c0.2-0.1,0.3-0.2,0.4-0.4c0.7-1.2,0.8-2.7,0.3-3.9" fill="#361410"/><path d="M186,177.2c0-0.4,0.1-0.7,0.1-1.1c0.1-0.7,0-1.6-0.7-1.6c-0.4,0-0.7,0.3-1,0.6c-0.8,1-1.2,2.1-1.4,3.3    c-0.1,0.6,0,1.3,0.4,1.7c0.7,0.6,1.8,0,2.2-0.9c0.3-0.8,0.2-1.8,0.2-2.7" fill="#361410"/><path d="M183.2,182.1c-1.1-0.3-2.3,0.1-3,1c-0.2,0.3-0.4,0.5-0.4,0.9c-0.1,1.1,1.4,1.9,2.3,1.4    c1-0.5,1.3-1.8,1.1-2.9" fill="#361410"/><path d="M188.3,168.5c-1.1-0.3-2.2-1.1-2.9-2c-0.3-0.3-0.7-0.7-1-0.5c-0.1,0.1-0.1,0.1-0.2,0.2    c-0.4,0.8-0.5,1.8-0.2,2.7c0.7,0.1,1.3,0.2,2,0.2c0.3,0,0.6,0.1,0.9-0.1c0.3-0.2,0.4-0.6,0.2-0.8" fill="#361410"/><path d="M180.4,167.9c-0.3-0.6,0-1.6-0.6-2c-0.5-0.3-1.2,0.1-1.5,0.7c-0.5,0.9-0.5,2.1-0.4,3.1    c0.7,0.3,1.6,0,2.1-0.6c0.5-0.6,0.6-1.5,0.2-2.1" fill="#361410"/><path d="M191.1,157c-0.1-1.1-0.4-2.4-1.4-2.9c-0.7-0.3-1.6-0.1-2.1,0.5s-0.7,1.3-0.7,2.1c0,0.3,0.1,0.5,0.2,0.7    c0.3,0.5,0.9,0.8,1.4,0.9c0.6,0.1,1.2,0.1,1.7-0.2c0.5-0.3,0.7-1.1,0.3-1.6" fill="#361410"/><path d="M192.5,149.7c-0.1-0.9-0.3-1.8-0.4-2.8c0-0.1,0-0.3-0.1-0.4c-0.1-0.1-0.3-0.2-0.4-0.2    c-0.5-0.2-1.1-0.3-1.6-0.2c-0.5,0.1-1,0.5-1.1,1c0,0.4,0.3,0.8,0.5,1.1c0.3,0.3,0.6,0.7,1,1c0.3,0.3,0.7,0.5,1.1,0.5    c0.4,0,0.7-0.6,0.4-0.9" fill="#361410"/><path d="M193.1,138.1c-0.3-0.7-0.7-1.4-1.3-1.8c-0.6-0.4-1.6-0.4-2,0.3c-0.1,0.2-0.2,0.5-0.2,0.8    c0,1.3,0.7,2.6,1.7,3.3c0.1,0.1,0.2,0.1,0.3,0.1c0.2,0,0.4-0.1,0.5-0.3c0.4-0.5,0.6-1.2,0.5-1.9" fill="#361410"/><path d="M194.9,132.8c-0.3-0.4-0.5-0.9-0.6-1.4c-0.2-0.5-0.5-1-1-1c-0.7-0.1-1.2,0.6-1.6,1.2    c-0.3,0.5-0.6,1.1-0.6,1.6c0,0.7,0.5,1.3,1.2,1.5c0.7,0.2,1.4-0.2,1.7-0.8" fill="#361410"/><path d="M188.9,122.2c-0.2-1.1-0.9-2.2-1.9-2.8c-0.2-0.1-0.4-0.2-0.7-0.2c-0.4,0-0.7,0.3-0.9,0.6    c-0.6,0.7-1.2,1.4-1.8,2c-0.1,0.1-0.2,0.2-0.2,0.4c-0.1,0.4,0.5,0.6,1,0.7c0.7,0,1.4,0.1,2.2,0.1c0.4,0,0.9,0,1.3-0.2    c0.4-0.3,0.4-0.9,0-1.1" fill="#361410"/><path d="M189,126.7c-0.6-0.1-1.3-0.2-1.8,0.2c-0.7,0.6-0.3,1.9,0.6,2.4c0.8,0.5,1.9,0.4,2.6-0.2    c0.7-0.6,0.9-1.8,0.4-2.5c-0.3-0.2-0.7-0.2-1,0" fill="#361410"/><path d="M150.1,100.8c-0.2,1.3-0.3,2.7-0.1,4c0,0.2,0.1,0.5,0.2,0.6c0.2,0.4,0.7,0.5,1.1,0.8    c0.4,0.3,0.6,0.8,1.1,0.9c0.6,0.1,1-0.6,1.2-1.2c0.5-1.6,0.8-3.3,0.9-5c0-0.4,0-0.8-0.2-1c-0.4-0.4-1-0.1-1.5-0.2    c-0.3-0.1-0.6-0.4-1-0.5C150.8,99,150.2,100,150.1,100.8z" fill="#361410"/><path d="M139.1,93.9c-0.1,0.5-0.1,1.1-0.1,1.6c0.1,0.4,0.2,0.7,0.5,1c0.3,0.3,0.8,0.5,1.2,0.6    c1.6,0.5,2.6,0.3,2.1-1.6C142.5,94.5,139.3,92.7,139.1,93.9z" fill="#361410"/><path d="M150.9,88.8c0-0.6-0.4-1.1-1-1.3c-0.5-0.2-1.1-0.2-1.7-0.2c-0.9,0-1.9,0-2.7,0.6c-0.7,0.5-1,1.8-0.2,2.4    c0.4,0.2,0.8,0.3,1.3,0.2c0.8,0,1.7-0.1,2.5-0.3c0.5-0.1,1.1-0.3,1.5-0.6c0.4-0.3,0.7-0.9,0.5-1.4c-0.2,0-0.4,0-0.6,0" fill="#361410"/><path d="M139.4,87.2c-0.8-0.7-0.6-2.4-1.7-2.8c-0.5-0.2-1.1,0.1-1.6,0.3c-0.8,0.4-1.7,0.8-2.3,1.5    c-0.6,0.7-0.9,1.7-0.5,2.6c0.5,1,1.7,1.3,2.8,1.6c0.2,0,0.5,0.1,0.7,0c0.3-0.1,0.5-0.3,0.6-0.6c0.4-0.7,0.6-1.5,0.5-2.3" fill="#361410"/><path d="M146.7,78.1c-0.4-0.2-0.2-0.9-0.6-1.2c-0.1-0.1-0.3-0.1-0.5-0.1c-0.7,0-1.5,0-2.2,0c-0.3,0-0.6,0-0.8,0.2    c-0.2,0.2-0.3,0.5-0.4,0.8c-0.2,0.8-0.3,1.9,0.4,2.4c0.4,0.3,0.9,0.4,1.4,0.4c0.8,0,1.5-0.2,2.2-0.4c0.6-0.2,1.1-0.6,1.3-1.2    c0.2-0.6-0.3-1.4-0.9-1.2" fill="#361410"/><path d="M138.6,78.4c-0.4-0.4-0.7-0.9-1.2-1.2c-0.5-0.3-1.2-0.3-1.6,0c-0.4,0.3-0.6,0.9-0.5,1.5    c0.1,0.5,0.6,0.9,1.1,1.2c0.8,0.4,1.9,0.3,2.6-0.3c-0.3-0.2-0.6-0.4-0.9-0.6" fill="#361410"/><path d="M153.8,82.3c0.7,0,1.5,0,2.1,0.3c0.7,0.3,1.3,0.8,1.3,1.6c0,0.1,0,0.3-0.1,0.4c-0.1,0.1-0.2,0.1-0.4,0.2    c-0.5,0.1-1.1,0.2-1.6,0.1c-0.5-0.1-1.1-0.4-1.2-0.9" fill="#361410"/><path d="M176.7,95.4c0.3,0.8,1.3,1.2,2,1.6c0.8,0.5,1.4,1.5,0.9,2.2c-0.5,0.2-1,0.3-1.5,0.2c-0.5-0.1-1-0.5-1-1    c0-0.2,0.1-0.4,0-0.7c-0.1-0.3-0.4-0.5-0.6-0.8c-0.3-0.5,0.2-1.4,0.8-1.3" fill="#361410"/><path d="M183.8,113.7c0.8,1.1,1.2,2.6,1,3.9c0,0.1,0,0.3-0.1,0.4c-0.1,0.1-0.3,0.2-0.5,0.2    c-0.6,0.1-1.2,0.1-1.8,0.1c-0.2,0-0.3,0-0.5-0.1c-0.1-0.1-0.1-0.2-0.1-0.4c-0.1-1-0.1-2,0.2-3c0.3-0.8,0.8-1.6,1.7-1.7" fill="#361410"/><path d="M180.4,127.4c0.1-1.3-0.7-2.6-1.5-3.7c-0.2-0.3-0.4-0.5-0.7-0.6c-0.7-0.3-1.3,0.4-1.5,1.1    c-0.3,1.1,0.3,2.3,1.1,3.2c0.5,0.5,1.1,1,1.8,1c0.7,0,1.5-0.4,1.6-1.1" fill="#361410"/><path d="M126.1,79.4c-0.3,0.1-0.6-0.1-0.7-0.3c-0.1-0.3-0.1-0.5-0.1-0.8c0.1-1.2,0.1-2.3,0.2-3.5    c0-0.2,0-0.3,0.1-0.5c0.1-0.2,0.4-0.3,0.7-0.3c0.8-0.1,1.9-0.1,2.3,0.6c0.2,0.3,0.3,0.6,0.3,0.9c0.1,1.1-0.1,2.3-0.6,3.3    c-0.3,0.6-0.8,1.2-1.4,1.5c-0.6,0.3-1.5,0.2-2-0.3" fill="#361410"/><path d="M128,124.4c0.9,0.2,1.4-1.1,1.5-2c0.8-9.6,1.5-19.2,1-28.8c-0.1-1.2-0.2-2.4-0.7-3.5    c-0.5-1.1-1.6-1.9-2.8-1.9c-0.2,1.2-0.3,2.5-0.4,3.7c-0.3,3.7-0.7,7.4-0.4,11.2c0.1,1.9,0.5,3.7,0.7,5.5    C127.6,113.8,128,119.1,128,124.4z" fill="#361410"/><g><g><path d="M73.4,191.6c0,0,0.7-0.1,1.9-0.4c1.2-0.3,2.9-0.6,4.9-0.9c1-0.1,2.1-0.3,3.3-0.4      c1.2-0.1,2.4-0.2,3.7-0.3c1.3-0.1,2.6-0.1,4-0.2c1.4,0,2.8,0,4.1,0c1.4,0.1,2.8,0.1,4.1,0.2c1.4,0.1,2.7,0.2,4,0.4      c1.3,0.2,2.5,0.3,3.7,0.6c0.6,0.1,1.2,0.2,1.7,0.3c0.3,0.1,0.5,0.1,0.8,0.2c0.3,0.1,0.5,0.1,0.8,0.2c1,0.3,1.9,0.5,2.8,0.8      c0.8,0.3,1.5,0.5,2.1,0.7c1.1,0.4,1.7,1,1.7,1l-0.1,0.1c0,0-0.8,0.1-1.9-0.3c-0.6-0.2-1.2-0.5-2-0.7c-0.8-0.2-1.7-0.5-2.7-0.8      c-0.2-0.1-0.5-0.1-0.8-0.2c-0.3-0.1-0.5-0.1-0.8-0.2c-0.5-0.1-1.1-0.2-1.7-0.4c-1.1-0.3-2.4-0.4-3.7-0.6c-1.3-0.2-2.6-0.3-4-0.4      c-0.3,0-0.7-0.1-1-0.1l-1-0.1c-0.7,0-1.4-0.1-2.1-0.1c-1.4-0.1-2.8,0-4.1-0.1c-1.4,0-2.7,0-4,0.1c-1.3,0.1-2.5,0.1-3.7,0.3      c-1.2,0.1-2.3,0.2-3.3,0.3c-2.1,0.2-3.8,0.5-5,0.7c-1.2,0.2-1.9,0.3-1.9,0.3L73.4,191.6z" fill="#BE9C5F"/><path d="M82.7,195.2c0,0,0.4-0.2,1.2-0.4c0.4-0.1,0.8-0.3,1.3-0.4c0.5-0.1,1.1-0.3,1.8-0.5      c0.6-0.2,1.4-0.3,2.1-0.5c0.7-0.2,1.5-0.3,2.4-0.5c0.8-0.1,1.7-0.3,2.6-0.4c0.9-0.1,1.8-0.2,2.7-0.2c0.4,0,0.9-0.1,1.3-0.1      c0.4,0,0.9,0,1.3,0c0.4,0,0.9,0,1.3,0c0.4,0,0.9,0,1.3,0.1c0.4,0,0.8,0,1.2,0.1c0.4,0,0.8,0.1,1.2,0.1c0.8,0.1,1.5,0.2,2.2,0.3      c0.7,0.1,1.3,0.2,1.8,0.3c0.5,0.1,1,0.2,1.4,0.4c0.7,0.3,1.1,0.7,1.1,0.7l0,0.1c0,0-0.5,0.2-1.3,0.1c-0.4,0-0.8-0.2-1.3-0.3      c-0.5-0.1-1.1-0.2-1.8-0.3c-0.6-0.1-1.4-0.2-2.1-0.3c-0.4,0-0.8-0.1-1.2-0.1c-0.4,0-0.8-0.1-1.2-0.1c-0.4,0-0.8-0.1-1.3-0.1      c-0.4,0-0.9,0-1.3,0c-0.4,0-0.9,0-1.3,0c-0.4,0-0.9,0-1.3,0c-0.9,0-1.8,0.1-2.6,0.2c-0.9,0.1-1.7,0.2-2.5,0.3      c-0.8,0.1-1.6,0.2-2.4,0.4c-0.8,0.1-1.5,0.2-2.1,0.4c-1.3,0.3-2.4,0.5-3.1,0.7c-0.8,0.2-1.2,0.3-1.2,0.3L82.7,195.2z" fill="#BE9C5F"/><path d="M90.9,197.8c0,0,0.4-0.2,1-0.4c0.3-0.1,0.7-0.3,1.2-0.4c0.5-0.1,1-0.3,1.5-0.5c0.6-0.2,1.2-0.3,1.9-0.5      c0.7-0.2,1.4-0.3,2.1-0.4c0.7-0.1,1.5-0.2,2.3-0.3c0.8-0.1,1.6-0.2,2.4-0.2c0.4,0,0.8,0,1.2-0.1c0.4,0,0.8,0,1.2,0      c0.4,0,0.8,0,1.2,0c0.4,0,0.8,0.1,1.1,0.1c0.4,0,0.7,0,1.1,0.1c0.4,0.1,0.7,0.1,1,0.2c0.3,0.1,0.7,0.1,1,0.2      c0.3,0.1,0.6,0.1,0.9,0.2c0.6,0.1,1.1,0.3,1.6,0.4c0.5,0.2,0.9,0.3,1.2,0.5c0.6,0.3,0.9,0.7,0.9,0.7l0,0.1c0,0-0.5,0.2-1.2,0.1      c-0.3,0-0.7-0.2-1.2-0.3c-0.5-0.1-1-0.2-1.5-0.4c-0.3-0.1-0.6-0.1-0.9-0.2c-0.3-0.1-0.6-0.1-1-0.2c-0.3-0.1-0.7-0.1-1-0.2      c-0.3-0.1-0.7-0.1-1.1-0.1c-0.4,0-0.7-0.1-1.1-0.1c-0.4,0-0.8,0-1.1-0.1c-0.4,0-0.8,0-1.2,0c-0.4,0-0.8,0-1.2,0      c-0.8,0-1.6,0-2.3,0.1c-0.8,0-1.5,0.1-2.2,0.2c-0.7,0.1-1.4,0.2-2.1,0.3c-0.7,0.1-1.3,0.2-1.9,0.3c-1.2,0.2-2.1,0.5-2.8,0.7      c-0.7,0.2-1,0.3-1,0.3L90.9,197.8z" fill="#BE9C5F"/><path d="M82.3,183.3c0,0,0.5,0,1.3-0.1c0.8-0.1,1.9-0.1,3.3-0.2c0.7,0,1.4,0,2.2,0c0.8,0,1.6,0.1,2.5,0.1      c0.9,0,1.7,0.1,2.6,0.2c0.9,0.1,1.8,0.2,2.7,0.4c0.9,0.2,1.8,0.3,2.7,0.5c0.4,0.1,0.9,0.2,1.3,0.3c0.4,0.1,0.9,0.2,1.3,0.3      c0.4,0.1,0.8,0.2,1.2,0.3c0.4,0.1,0.8,0.3,1.2,0.4c0.7,0.3,1.5,0.5,2.1,0.8c0.6,0.3,1.2,0.5,1.7,0.7c0.5,0.3,1,0.5,1.3,0.7      c0.7,0.4,0.9,0.9,0.9,0.9l-0.1,0.1c0,0-0.6,0.1-1.3-0.2c-0.4-0.1-0.8-0.4-1.3-0.6c-0.5-0.2-1.1-0.5-1.7-0.7      c-0.6-0.3-1.3-0.5-2-0.8c-0.4-0.1-0.7-0.3-1.1-0.4c-0.4-0.1-0.8-0.2-1.2-0.4c-0.4-0.1-0.8-0.3-1.2-0.4c-0.4-0.1-0.9-0.2-1.3-0.3      c-0.9-0.2-1.8-0.4-2.6-0.6c-0.9-0.2-1.8-0.3-2.7-0.4c-0.9-0.1-1.8-0.2-2.6-0.3c-0.8-0.1-1.7-0.1-2.5-0.2      c-0.8-0.1-1.5-0.1-2.2-0.1c-1.4,0-2.5,0-3.3,0c-0.8,0-1.3,0-1.3,0L82.3,183.3z" fill="#BE9C5F"/><path d="M90.4,187.3c0,0,0.5-0.1,1.3-0.1c0.4,0,0.9-0.1,1.5-0.1c0.6,0,1.3,0,2,0c0.7,0,1.5,0,2.4,0      c0.8,0,1.7,0.1,2.6,0.1c0.9,0.1,1.8,0.2,2.8,0.3c0.9,0.1,1.9,0.2,2.9,0.4c0.5,0.1,1,0.2,1.4,0.3c0.5,0.1,0.9,0.2,1.4,0.3      c0.5,0.1,0.9,0.2,1.4,0.3c0.5,0.1,0.9,0.3,1.3,0.4c0.4,0.1,0.9,0.2,1.3,0.4c0.4,0.1,0.8,0.3,1.2,0.4c0.8,0.3,1.6,0.5,2.2,0.8      c0.7,0.3,1.3,0.5,1.9,0.8c0.5,0.3,1,0.5,1.4,0.7c0.2,0.1,0.4,0.2,0.5,0.3c0.1,0.1,0.2,0.2,0.3,0.3c0.1,0.2,0.2,0.5,0.2,0.5      l-0.1,0.1c0,0-0.2,0.1-0.5,0.1c-0.1,0-0.3,0-0.4-0.1c-0.1-0.1-0.3-0.2-0.5-0.2c-0.4-0.2-0.8-0.4-1.3-0.7      c-0.5-0.2-1.1-0.5-1.8-0.8c-0.7-0.3-1.4-0.5-2.2-0.8c-0.4-0.1-0.8-0.3-1.2-0.4c-0.4-0.1-0.8-0.3-1.3-0.4      c-0.4-0.1-0.9-0.3-1.3-0.4c-0.4-0.1-0.9-0.2-1.4-0.3c-0.9-0.2-1.9-0.4-2.8-0.6c-0.9-0.2-1.9-0.3-2.8-0.5      c-0.9-0.1-1.9-0.3-2.8-0.4c-0.9-0.1-1.8-0.2-2.6-0.2c-0.8-0.1-1.6-0.1-2.3-0.2c-1.4-0.1-2.7-0.1-3.5-0.1c-0.8,0-1.3,0-1.3,0      L90.4,187.3z" fill="#BE9C5F"/></g><g><path d="M182.2,191.6c0,0-0.7-0.1-1.9-0.4c-1.2-0.3-2.9-0.6-4.9-0.9c-1-0.1-2.1-0.3-3.3-0.4      c-1.2-0.1-2.4-0.2-3.7-0.3c-1.3-0.1-2.6-0.1-4-0.2c-1.4,0-2.8,0-4.1,0c-1.4,0.1-2.8,0.1-4.1,0.2c-1.4,0.1-2.7,0.2-4,0.4      c-1.3,0.2-2.5,0.3-3.7,0.6c-0.6,0.1-1.2,0.2-1.7,0.3c-0.3,0.1-0.5,0.1-0.8,0.2c-0.3,0.1-0.5,0.1-0.8,0.2c-1,0.3-1.9,0.5-2.8,0.8      c-0.8,0.3-1.5,0.5-2.1,0.7c-1.1,0.4-1.7,1-1.7,1l0.1,0.1c0,0,0.8,0.1,1.9-0.3c0.6-0.2,1.2-0.5,2-0.7c0.8-0.2,1.7-0.5,2.7-0.8      c0.2-0.1,0.5-0.1,0.8-0.2c0.3-0.1,0.5-0.1,0.8-0.2c0.5-0.1,1.1-0.2,1.7-0.4c1.1-0.3,2.4-0.4,3.7-0.6c1.3-0.2,2.6-0.3,4-0.4      c0.3,0,0.7-0.1,1-0.1l1-0.1c0.7,0,1.4-0.1,2.1-0.1c1.4-0.1,2.8,0,4.1-0.1c1.4,0,2.7,0,4,0.1c1.3,0.1,2.5,0.1,3.7,0.3      c1.2,0.1,2.3,0.2,3.3,0.3c2.1,0.2,3.8,0.5,5,0.7c1.2,0.2,1.9,0.3,1.9,0.3L182.2,191.6z" fill="#BE9C5F"/><path d="M173,195.2c0,0-0.4-0.2-1.2-0.4c-0.4-0.1-0.8-0.3-1.3-0.4c-0.5-0.1-1.1-0.3-1.8-0.5      c-0.6-0.2-1.4-0.3-2.1-0.5c-0.7-0.2-1.5-0.3-2.4-0.5c-0.8-0.1-1.7-0.3-2.6-0.4c-0.9-0.1-1.8-0.2-2.7-0.2c-0.4,0-0.9-0.1-1.3-0.1      c-0.4,0-0.9,0-1.3,0c-0.4,0-0.9,0-1.3,0c-0.4,0-0.9,0-1.3,0.1c-0.4,0-0.8,0-1.2,0.1c-0.4,0-0.8,0.1-1.2,0.1      c-0.8,0.1-1.5,0.2-2.2,0.3c-0.7,0.1-1.3,0.2-1.8,0.3c-0.5,0.1-1,0.2-1.4,0.4c-0.7,0.3-1.1,0.7-1.1,0.7l0,0.1      c0,0,0.5,0.2,1.3,0.1c0.4,0,0.8-0.2,1.3-0.3c0.5-0.1,1.1-0.2,1.8-0.3c0.6-0.1,1.4-0.2,2.1-0.3c0.4,0,0.8-0.1,1.2-0.1      c0.4,0,0.8-0.1,1.2-0.1c0.4,0,0.8-0.1,1.3-0.1c0.4,0,0.9,0,1.3,0c0.4,0,0.9,0,1.3,0c0.4,0,0.9,0,1.3,0c0.9,0,1.8,0.1,2.6,0.2      c0.9,0.1,1.7,0.2,2.5,0.3c0.8,0.1,1.6,0.2,2.4,0.4c0.8,0.1,1.5,0.2,2.1,0.4c1.3,0.3,2.4,0.5,3.1,0.7c0.8,0.2,1.2,0.3,1.2,0.3      L173,195.2z" fill="#BE9C5F"/><path d="M164.7,197.8c0,0-0.4-0.2-1-0.4c-0.3-0.1-0.7-0.3-1.2-0.4c-0.5-0.1-1-0.3-1.5-0.5      c-0.6-0.2-1.2-0.3-1.9-0.5c-0.7-0.2-1.4-0.3-2.1-0.4c-0.7-0.1-1.5-0.2-2.3-0.3c-0.8-0.1-1.6-0.2-2.4-0.2c-0.4,0-0.8,0-1.2-0.1      c-0.4,0-0.8,0-1.2,0c-0.4,0-0.8,0-1.2,0c-0.4,0-0.8,0.1-1.1,0.1c-0.4,0-0.7,0-1.1,0.1c-0.4,0.1-0.7,0.1-1,0.2      c-0.3,0.1-0.7,0.1-1,0.2c-0.3,0.1-0.6,0.1-0.9,0.2c-0.6,0.1-1.1,0.3-1.6,0.4c-0.5,0.2-0.9,0.3-1.2,0.5c-0.6,0.3-0.9,0.7-0.9,0.7      l0,0.1c0,0,0.5,0.2,1.2,0.1c0.3,0,0.7-0.2,1.2-0.3c0.5-0.1,1-0.2,1.5-0.4c0.3-0.1,0.6-0.1,0.9-0.2c0.3-0.1,0.6-0.1,1-0.2      c0.3-0.1,0.7-0.1,1-0.2c0.3-0.1,0.7-0.1,1.1-0.1c0.4,0,0.7-0.1,1.1-0.1c0.4,0,0.8,0,1.1-0.1c0.4,0,0.8,0,1.2,0      c0.4,0,0.8,0,1.2,0c0.8,0,1.6,0,2.3,0.1c0.8,0,1.5,0.1,2.2,0.2c0.7,0.1,1.4,0.2,2.1,0.3c0.7,0.1,1.3,0.2,1.9,0.3      c1.2,0.2,2.1,0.5,2.8,0.7c0.7,0.2,1,0.3,1,0.3L164.7,197.8z" fill="#BE9C5F"/><path d="M173.4,183.3c0,0-0.5,0-1.3-0.1c-0.8-0.1-1.9-0.1-3.3-0.2c-0.7,0-1.4,0-2.2,0c-0.8,0-1.6,0.1-2.5,0.1      c-0.9,0-1.7,0.1-2.6,0.2c-0.9,0.1-1.8,0.2-2.7,0.4c-0.9,0.2-1.8,0.3-2.7,0.5c-0.4,0.1-0.9,0.2-1.3,0.3c-0.4,0.1-0.9,0.2-1.3,0.3      c-0.4,0.1-0.8,0.2-1.2,0.3c-0.4,0.1-0.8,0.3-1.2,0.4c-0.7,0.3-1.5,0.5-2.1,0.8c-0.6,0.3-1.2,0.5-1.7,0.7c-0.5,0.3-1,0.5-1.3,0.7      c-0.7,0.4-0.9,0.9-0.9,0.9l0.1,0.1c0,0,0.6,0.1,1.3-0.2c0.4-0.1,0.8-0.4,1.3-0.6c0.5-0.2,1.1-0.5,1.7-0.7c0.6-0.3,1.3-0.5,2-0.8      c0.4-0.1,0.7-0.3,1.1-0.4c0.4-0.1,0.8-0.2,1.2-0.4c0.4-0.1,0.8-0.3,1.2-0.4c0.4-0.1,0.9-0.2,1.3-0.3c0.9-0.2,1.8-0.4,2.6-0.6      c0.9-0.2,1.8-0.3,2.7-0.4c0.9-0.1,1.8-0.2,2.6-0.3c0.8-0.1,1.7-0.1,2.5-0.2c0.8-0.1,1.5-0.1,2.2-0.1c1.4,0,2.5,0,3.3,0      c0.8,0,1.3,0,1.3,0L173.4,183.3z" fill="#BE9C5F"/><path d="M165.2,187.3c0,0-0.5-0.1-1.3-0.1c-0.4,0-0.9-0.1-1.5-0.1c-0.6,0-1.3,0-2,0c-0.7,0-1.5,0-2.4,0      c-0.8,0-1.7,0.1-2.6,0.1c-0.9,0.1-1.8,0.2-2.8,0.3c-0.9,0.1-1.9,0.2-2.9,0.4c-0.5,0.1-1,0.2-1.4,0.3c-0.5,0.1-0.9,0.2-1.4,0.3      c-0.5,0.1-0.9,0.2-1.4,0.3c-0.5,0.1-0.9,0.3-1.3,0.4c-0.4,0.1-0.9,0.2-1.3,0.4c-0.4,0.1-0.8,0.3-1.2,0.4      c-0.8,0.3-1.5,0.5-2.2,0.8c-0.7,0.3-1.3,0.5-1.9,0.8c-0.5,0.3-1,0.5-1.4,0.7c-0.2,0.1-0.4,0.2-0.5,0.3c-0.1,0.1-0.2,0.2-0.3,0.3      c-0.1,0.2-0.2,0.5-0.2,0.5l0.1,0.1c0,0,0.2,0.1,0.5,0.1c0.1,0,0.3,0,0.4-0.1c0.1-0.1,0.3-0.2,0.5-0.2c0.4-0.2,0.8-0.4,1.3-0.7      c0.5-0.2,1.1-0.5,1.8-0.8c0.7-0.3,1.4-0.5,2.2-0.8c0.4-0.1,0.8-0.3,1.2-0.4c0.4-0.1,0.8-0.3,1.3-0.4c0.4-0.1,0.9-0.3,1.3-0.4      c0.4-0.1,0.9-0.2,1.4-0.3c0.9-0.2,1.9-0.4,2.8-0.6c0.9-0.2,1.9-0.3,2.8-0.5c0.9-0.1,1.9-0.3,2.8-0.4c0.9-0.1,1.8-0.2,2.6-0.2      c0.8-0.1,1.6-0.1,2.3-0.2c1.4-0.1,2.7-0.1,3.5-0.1c0.8,0,1.3,0,1.3,0L165.2,187.3z" fill="#BE9C5F"/></g></g></g></g></svg>